<?xml version="1.0" standalone="no"?>
<!DOCTYPE svg PUBLIC "-//W3C//DTD SVG 20010904//EN"
 "http://www.w3.org/TR/2001/REC-SVG-20010904/DTD/svg10.dtd">
<svg version="1.0" xmlns="http://www.w3.org/2000/svg"
 width="354.000000pt" height="343.000000pt" viewBox="0 0 354.000000 343.000000"
 preserveAspectRatio="xMidYMid meet">

<g transform="translate(0.000000,343.000000) scale(0.100000,-0.100000)"
fill="#000000" stroke="none">
<path d="M0 1715 l0 -1715 1770 0 1770 0 0 1715 0 1715 -1770 0 -1770 0 0
-1715z m3250 1465 c8 -15 8 -157 0 -498 -5 -262 -11 -718 -12 -1012 -1 -409
-3 -488 -8 -335 -4 110 -8 398 -9 640 -1 242 -6 532 -11 645 -25 542 -25 538
-5 560 23 25 32 25 45 0z m-375 -130 l0 -135 -489 -3 c-385 -2 -491 0 -498 10
-9 16 -11 252 -1 261 3 4 227 6 497 5 l491 -3 0 -135z m-1535 -10 l0 -140
-122 1 c-68 1 -163 4 -213 8 -85 6 -80 7 103 15 l193 8 -3 97 -3 96 -476 3
-476 2 -6 -97 c-4 -54 -7 -608 -7 -1230 l0 -1133 124 0 124 0 6 478 c3 262 10
716 16 1007 6 292 11 584 12 650 l2 120 7 -140 c4 -77 10 -688 14 -1357 l8
-1218 -37 0 -38 0 4 203 3 202 -162 0 c-108 -1 -163 3 -163 10 0 5 7 28 15 50
12 34 14 209 15 1145 0 608 3 1162 7 1233 l6 127 524 0 523 0 0 -140z m-389
-385 c79 -99 301 -369 493 -600 193 -231 365 -438 382 -459 l30 -39 505 634
504 634 7 -50 c3 -28 7 -465 7 -972 l1 -923 -255 0 -255 0 -2 372 -3 372 -190
-239 c-105 -132 -214 -270 -244 -307 -29 -38 -56 -68 -61 -68 -5 0 -102 111
-216 248 -240 285 -316 372 -326 372 -5 0 -8 -169 -8 -375 l0 -375 -265 0
-265 0 0 987 c0 570 4 983 9 978 5 -6 73 -91 152 -190z m2296 -1632 c-2 -21
-4 -4 -4 37 0 41 2 58 4 38 2 -21 2 -55 0 -75z m-1499 -496 l3 -137 -26 -10
c-29 -11 -745 -14 -868 -4 l-77 7 0 137 c0 75 3 140 7 143 3 4 221 6 482 5
l476 -3 3 -138z"/>
<path d="M840 525 l0 -105 430 0 430 0 0 105 0 105 -430 0 -430 0 0 -105z"/>
</g>
</svg>
